<?xml version="1.0" standalone="no"?>
<!DOCTYPE svg PUBLIC "-//W3C//DTD SVG 20010904//EN"
 "http://www.w3.org/TR/2001/REC-SVG-20010904/DTD/svg10.dtd">
<svg version="1.0" xmlns="http://www.w3.org/2000/svg"
 width="500.000000pt" height="500.000000pt" viewBox="0 0 500.000000 500.000000"
 preserveAspectRatio="xMidYMid meet">
<metadata>
Created by potrace 1.11, written by Peter Selinger 2001-2013
</metadata>
<g transform="translate(0.000000,500.000000) scale(0.100000,-0.100000)"
fill="#000000" stroke="none">
<path d="M2185 4740 c-22 -5 -78 -15 -125 -24 -47 -9 -103 -21 -125 -27 -125
-33 -183 -51 -220 -69 -23 -11 -48 -20 -56 -20 -8 0 -36 -12 -64 -25 -27 -14
-55 -25 -61 -25 -6 0 -22 -8 -35 -19 -13 -10 -35 -22 -48 -26 -12 -4 -38 -17
-57 -29 -18 -11 -55 -34 -81 -50 -101 -61 -146 -92 -213 -149 -8 -7 -28 -21
-45 -32 -39 -24 -276 -261 -300 -300 -11 -17 -25 -37 -32 -45 -57 -67 -88
-112 -149 -213 -16 -26 -39 -63 -50 -81 -12 -19 -25 -45 -29 -57 -4 -13 -16
-35 -26 -48 -11 -13 -19 -29 -19 -35 0 -6 -11 -33 -25 -61 -13 -27 -25 -56
-25 -64 0 -8 -9 -33 -20 -56 -18 -37 -36 -95 -69 -220 -6 -22 -18 -78 -26
-125 -9 -47 -21 -105 -25 -130 -5 -25 -9 -153 -9 -285 0 -132 4 -260 9 -285 4
-25 16 -83 25 -130 8 -47 20 -103 26 -125 33 -125 51 -183 69 -220 11 -23 20
-48 20 -56 0 -8 12 -36 25 -64 14 -27 25 -55 25 -61 0 -6 8 -22 19 -35 10 -13
22 -35 26 -48 4 -12 17 -38 29 -57 11 -18 34 -55 50 -81 61 -101 92 -146 149
-213 7 -8 21 -28 32 -45 24 -39 261 -276 300 -300 17 -11 37 -25 45 -32 67
-57 112 -88 213 -149 26 -16 63 -39 81 -50 19 -12 45 -25 57 -29 13 -4 35 -16
48 -26 13 -11 29 -19 35 -19 6 0 34 -11 61 -25 28 -13 56 -25 64 -25 8 0 33
-9 56 -20 37 -18 95 -36 220 -69 22 -6 78 -18 125 -26 47 -9 105 -21 130 -25
58 -11 512 -11 570 0 25 4 83 16 130 25 47 8 103 20 125 26 125 33 183 51 220
69 23 11 48 20 56 20 8 0 37 12 64 25 28 14 55 25 61 25 6 0 22 8 35 19 13 10
35 22 48 26 12 4 38 17 57 29 18 11 55 34 81 50 101 61 146 92 213 149 8 7 28
21 45 32 39 24 276 261 300 300 11 17 25 37 32 45 57 67 88 112 149 213 16 26
39 63 50 81 12 19 25 45 29 57 4 13 16 35 26 48 11 13 19 29 19 35 0 6 11 34
25 61 13 28 25 56 25 64 0 8 9 33 20 56 18 37 36 95 69 220 6 22 18 78 26 125
9 47 21 105 25 130 11 58 11 512 0 570 -4 25 -16 83 -25 130 -8 47 -20 103
-26 125 -33 125 -51 183 -69 220 -11 23 -20 48 -20 56 0 8 -12 37 -25 64 -14
28 -25 55 -25 61 0 6 -8 22 -19 35 -10 13 -22 35 -26 48 -4 12 -17 38 -29 57
-11 18 -34 55 -50 81 -61 101 -92 146 -149 213 -7 8 -21 28 -32 45 -24 39
-261 276 -300 300 -17 11 -37 25 -45 32 -67 57 -112 88 -213 149 -26 16 -63
39 -81 50 -19 12 -45 25 -57 29 -13 4 -35 16 -48 26 -13 11 -29 19 -35 19 -6
0 -33 11 -61 25 -27 13 -56 25 -64 25 -8 0 -33 9 -56 20 -37 18 -95 36 -220
69 -22 6 -78 18 -125 26 -47 9 -105 21 -130 25 -56 11 -520 10 -575 0z m625
-1645 l0 -345 390 0 390 0 0 345 0 345 110 0 110 0 0 -820 0 -820 -110 0 -110
0 0 385 0 385 -390 0 -390 0 0 -385 0 -385 -110 0 -110 0 0 820 0 820 110 0
110 0 0 -345z m-890 310 c41 -7 112 -23 158 -35 l82 -22 0 -99 c0 -54 -1 -99
-2 -99 -2 0 -48 16 -102 36 -135 48 -219 64 -335 64 -238 0 -361 -90 -361
-262 1 -106 39 -163 136 -204 21 -9 126 -36 233 -60 274 -61 387 -118 459
-231 44 -69 65 -153 65 -254 -1 -196 -78 -321 -245 -399 -186 -87 -500 -84
-783 6 l-85 27 0 105 c0 79 3 103 13 99 6 -3 50 -22 96 -42 153 -65 227 -80
396 -80 134 1 157 3 210 24 75 30 148 99 164 156 14 52 14 138 0 186 -31 103
-119 153 -355 204 -256 54 -332 85 -425 172 -81 76 -118 206 -99 345 30 218
195 351 470 382 54 6 227 -5 310 -19z"/>
</g>
</svg>
