<?xml version="1.0" encoding="UTF-8" standalone="no"?>
<svg
   xmlns:dc="http://purl.org/dc/elements/1.1/"
   xmlns:cc="http://creativecommons.org/ns#"
   xmlns:rdf="http://www.w3.org/1999/02/22-rdf-syntax-ns#"
   xmlns:svg="http://www.w3.org/2000/svg"
   xmlns="http://www.w3.org/2000/svg"
   xmlns:sodipodi="http://sodipodi.sourceforge.net/DTD/sodipodi-0.dtd"
   xmlns:inkscape="http://www.inkscape.org/namespaces/inkscape"
   width="750"
   height="500"
   viewBox="0 0 20.27027 13.513514"
   id="svg2"
   version="1.1"
   inkscape:version="0.48.1 "
   sodipodi:docname="PACE-flag.svg">
  <metadata
     id="metadata24">
    <rdf:RDF>
      <cc:Work
         rdf:about="">
        <dc:format>image/svg+xml</dc:format>
        <dc:type
           rdf:resource="http://purl.org/dc/dcmitype/StillImage" />
        <dc:title />
      </cc:Work>
    </rdf:RDF>
  </metadata>
  <defs
     id="defs22" />
  <sodipodi:namedview
     pagecolor="#ffffff"
     bordercolor="#666666"
     borderopacity="1"
     objecttolerance="10"
     gridtolerance="10"
     guidetolerance="10"
     inkscape:pageopacity="0"
     inkscape:pageshadow="2"
     inkscape:window-width="1280"
     inkscape:window-height="738"
     id="namedview20"
     showgrid="false"
     inkscape:zoom="1.0019305"
     inkscape:cx="361.37224"
     inkscape:cy="259"
     inkscape:window-x="-8"
     inkscape:window-y="-8"
     inkscape:window-maximized="1"
     inkscape:current-layer="svg2" />
  <rect
     width="20.270269"
     height="1.9305019"
     id="rect4"
     x="0"
     y="8.0546823e-009"
     style="fill:#8800bb" />
  <rect
     width="20.270269"
     height="1.9305019"
     y="1.9305019"
     id="rect6"
     x="0"
     style="fill:#0000ff" />
  <rect
     width="20.270269"
     height="1.9305019"
     y="3.8610039"
     id="rect8"
     x="0"
     style="fill:#88bbdd" />
  <rect
     width="20.270269"
     height="1.9305019"
     y="5.7915058"
     id="rect10"
     x="0"
     style="fill:#66bb44" />
  <rect
     width="20.270269"
     height="1.9305019"
     y="7.7220078"
     id="rect12"
     x="0"
     style="fill:#ffee00" />
  <rect
     width="20.270269"
     height="1.9305019"
     y="9.6525097"
     id="rect14"
     x="0"
     style="fill:#ff4411" />
  <rect
     width="20.270269"
     height="1.9305019"
     y="11.583012"
     id="rect16"
     x="0"
     style="fill:#ff1100" />
  <g
     style="font-size:4.86486483px;font-style:normal;font-variant:normal;font-weight:bold;font-stretch:normal;fill:#ffffff;font-family:Arial;-inkscape-font-specification:Arial Bold"
     id="text18">
    <path
       d="m 3.6704233,8.497942 0,-3.4823691 1.1283256,0 c 0.4275741,3.5e-6 0.70629,0.017423 0.8361486,0.052259 0.199533,0.052263 0.3666042,0.1658869 0.5012141,0.3408731 0.1346044,0.1749924 0.2019079,0.4010531 0.2019109,0.6781831 -3e-6,0.2137902 -0.038801,0.3935303 -0.1163956,0.5392208 C 6.1440269,6.7718035 6.045447,6.8862196 5.9258868,6.9693577 5.8063214,7.052499 5.684779,7.1075295 5.5612595,7.1344496 5.3933942,7.1677068 5.1503096,7.1843348 4.8320048,7.1843335 l -0.4584565,0 0,1.3136085 z m 0.703125,-2.8932644 0,0.9881757 0.3848184,0 c 0.2771309,1.9e-6 0.4624137,-0.01821 0.5558488,-0.054635 C 5.4076467,6.5017974 5.4808888,6.4447874 5.5339421,6.3671882 5.5869909,6.2895933 5.6135165,6.1993273 5.6135187,6.09639 5.6135165,5.9697034 5.5763015,5.8651849 5.5018739,5.7828343 5.4274419,5.7004891 5.3332169,5.6490217 5.2191986,5.6284319 5.1352652,5.6125986 4.9666104,5.6046805 4.7132337,5.6046776 z"
       style="font-size:4.86486483px;font-style:normal;font-variant:normal;font-weight:bold;font-stretch:normal;fill:#ffffff;font-family:Arial;-inkscape-font-specification:Arial Bold"
       id="path2990" />
    <path
       d="m 10.060309,8.497942 -0.7648856,0 -0.3040541,-0.7910156 -1.3919974,0 -0.2874261,0.7910156 -0.7458826,0 1.3563661,-3.4823691 0.7435072,0 z M 8.7657042,7.120197 8.2858689,5.8279673 7.8155353,7.120197 z"
       style="font-size:4.86486483px;font-style:normal;font-variant:normal;font-weight:bold;font-stretch:normal;fill:#ffffff;font-family:Arial;-inkscape-font-specification:Arial Bold"
       id="path2992" />
    <path
       d="m 12.663772,7.2175894 0.681746,0.2161634 c -0.104522,0.3800682 -0.278323,0.6623473 -0.521405,0.846838 -0.243087,0.1844912 -0.551496,0.2767367 -0.925227,0.2767367 -0.462417,0 -0.842484,-0.1579655 -1.140203,-0.4738967 -0.29772,-0.3159304 -0.446579,-0.747861 -0.446579,-1.2957929 0,-0.5796007 0.149651,-1.0297428 0.448955,-1.3504275 0.299302,-0.3206787 0.69283,-0.4810195 1.180585,-0.481023 0.42599,3.5e-6 0.772009,0.1259008 1.038059,0.3776921 0.158359,0.1488628 0.27713,0.3626506 0.356313,0.641364 L 12.640018,6.1415231 C 12.598841,5.9609935 12.51293,5.8184683 12.382284,5.7139471 12.251634,5.6094314 12.092877,5.5571721 11.906012,5.5571692 c -0.258131,2.9e-6 -0.467563,0.092644 -0.628299,0.2779244 -0.160738,0.1852854 -0.241106,0.4853801 -0.241105,0.900285 -10e-7,0.4402463 0.07918,0.7538017 0.237542,0.9406673 0.15836,0.1868672 0.36423,0.2803003 0.61761,0.2802998 0.186864,5e-7 0.347601,-0.059385 0.48221,-0.1781567 0.134605,-0.1187703 0.231206,-0.3056366 0.289802,-0.5605996 z"
       style="font-size:4.86486483px;font-style:normal;font-variant:normal;font-weight:bold;font-stretch:normal;fill:#ffffff;font-family:Arial;-inkscape-font-specification:Arial Bold"
       id="path2994" />
    <path
       d="m 13.951251,8.497942 0,-3.4823691 2.582084,0 0,0.5891047 -1.878959,0 0,0.7720123 1.748311,0 0,0.5867293 -1.748311,0 0,0.9477935 1.945471,0 0,0.5867293 z"
       style="font-size:4.86486483px;font-style:normal;font-variant:normal;font-weight:bold;font-stretch:normal;fill:#ffffff;font-family:Arial;-inkscape-font-specification:Arial Bold"
       id="path2996" />
  </g>
</svg>
