<?xml version="1.0" standalone="no"?><!DOCTYPE svg PUBLIC "-//W3C//DTD SVG 1.1//EN" "http://www.w3.org/Graphics/SVG/1.1/DTD/svg11.dtd"><svg xmlns="http://www.w3.org/2000/svg" viewBox="0 0 650 400" version="1.1"><clipPath id="box"><rect x="0" y="0" width="650" height="400" style="fill:none;stroke:none;" /></clipPath><g clip-path="url(#box)"><rect x="0.00" y="0.00" width="650.00" height="400.00" style="fill:#FFFFFF;stroke:none;" /><path d="M344.20 0.00 L344.20 400.00 " style="fill:none;stroke:#C7C7C7;stroke-width:1;" /><path d="M337.70 403.98 L350.70 403.98 M337.70 341.48 L350.70 341.48 M337.70 278.98 L350.70 278.98 M337.70 216.48 L350.70 216.48 M337.70 153.98 L350.70 153.98 M337.70 91.48 L350.70 91.48 M337.70 28.98 L350.70 28.98 " style="fill:none;stroke:#C7C7C7;stroke-width:1;" /><path d="M0.00 278.98 L650.00 278.98 " style="fill:none;stroke:#C7C7C7;stroke-width:1;" /><path d="M-30.80 272.48 L-30.80 285.48 M31.70 272.48 L31.70 285.48 M94.20 272.48 L94.20 285.48 M156.70 272.48 L156.70 285.48 M219.20 272.48 L219.20 285.48 M281.70 272.48 L281.70 285.48 M344.20 272.48 L344.20 285.48 M406.70 272.48 L406.70 285.48 M469.20 272.48 L469.20 285.48 M531.70 272.48 L531.70 285.48 M594.20 272.48 L594.20 285.48 " style="fill:none;stroke:#C7C7C7;stroke-width:1;" /><text x="352.32812500000006" y="343.984375" text-anchor="start" style="font:10px Droid Sans,Trebuchet MS,Arial,Helvetica,sans-serif;stroke:none;fill:#000000">-1</text><text x="352.32812500000006" y="281.484375" text-anchor="start" style="font:10px Droid Sans,Trebuchet MS,Arial,Helvetica,sans-serif;stroke:none;fill:#000000">0</text><text x="352.32812500000006" y="218.98437500000003" text-anchor="start" style="font:10px Droid Sans,Trebuchet MS,Arial,Helvetica,sans-serif;stroke:none;fill:#000000">1</text><text x="352.32812500000006" y="156.484375" text-anchor="start" style="font:10px Droid Sans,Trebuchet MS,Arial,Helvetica,sans-serif;stroke:none;fill:#000000">2</text><text x="352.32812500000006" y="93.98437499999997" text-anchor="start" style="font:10px Droid Sans,Trebuchet MS,Arial,Helvetica,sans-serif;stroke:none;fill:#000000">3</text><text x="352.32812500000006" y="31.484374999999957" text-anchor="start" style="font:10px Droid Sans,Trebuchet MS,Arial,Helvetica,sans-serif;stroke:none;fill:#000000">4</text><text x="31.703125000000107" y="295.109375" text-anchor="middle" style="font:10px Droid Sans,Trebuchet MS,Arial,Helvetica,sans-serif;stroke:none;fill:#000000">-5</text><text x="94.2031250000001" y="295.109375" text-anchor="middle" style="font:10px Droid Sans,Trebuchet MS,Arial,Helvetica,sans-serif;stroke:none;fill:#000000">-4</text><text x="156.7031250000001" y="295.109375" text-anchor="middle" style="font:10px Droid Sans,Trebuchet MS,Arial,Helvetica,sans-serif;stroke:none;fill:#000000">-3</text><text x="219.2031250000001" y="295.109375" text-anchor="middle" style="font:10px Droid Sans,Trebuchet MS,Arial,Helvetica,sans-serif;stroke:none;fill:#000000">-2</text><text x="281.7031250000001" y="295.109375" text-anchor="middle" style="font:10px Droid Sans,Trebuchet MS,Arial,Helvetica,sans-serif;stroke:none;fill:#000000">-1</text><text x="344.20312500000006" y="295.109375" text-anchor="middle" style="font:10px Droid Sans,Trebuchet MS,Arial,Helvetica,sans-serif;stroke:none;fill:#000000">0</text><text x="406.70312500000006" y="295.109375" text-anchor="middle" style="font:10px Droid Sans,Trebuchet MS,Arial,Helvetica,sans-serif;stroke:none;fill:#000000">1</text><text x="469.2031250000001" y="295.109375" text-anchor="middle" style="font:10px Droid Sans,Trebuchet MS,Arial,Helvetica,sans-serif;stroke:none;fill:#000000">2</text><text x="531.7031250000001" y="295.109375" text-anchor="middle" style="font:10px Droid Sans,Trebuchet MS,Arial,Helvetica,sans-serif;stroke:none;fill:#000000">3</text><text x="594.2031250000001" y="295.109375" text-anchor="middle" style="font:10px Droid Sans,Trebuchet MS,Arial,Helvetica,sans-serif;stroke:none;fill:#000000">4</text><path d="M212.15 -0.00 L212.16 0.00 L212.39 1.00 L212.63 2.00 L212.87 3.00 L213.10 3.99 L213.34 4.99 L213.58 5.99 L213.82 6.99 L214.06 7.99 L214.30 8.99 L214.54 9.98 L214.78 10.98 L215.02 11.98 L215.26 12.98 L215.51 13.98 L215.75 14.97 L215.99 15.97 L216.23 16.97 L216.48 17.97 L216.72 18.97 L216.97 19.97 L217.21 20.96 L217.46 21.96 L217.71 22.96 L217.95 23.96 L218.20 24.96 L218.45 25.95 L218.70 26.95 L218.94 27.95 L219.19 28.95 L219.44 29.95 L219.69 30.94 L219.94 31.94 L220.20 32.94 L220.45 33.94 L220.70 34.94 L220.95 35.93 L221.21 36.93 L221.46 37.93 L221.71 38.93 L221.97 39.93 L222.22 40.92 L222.48 41.92 L222.74 42.92 L222.99 43.92 L223.25 44.91 L223.51 45.91 L223.77 46.91 L224.03 47.91 L224.29 48.91 L224.55 49.90 L224.81 50.90 L225.07 51.90 L225.33 52.90 L225.59 53.90 L225.86 54.89 L226.12 55.89 L226.39 56.89 L226.65 57.89 L226.92 58.88 L227.18 59.88 L227.45 60.88 L227.72 61.88 L227.98 62.87 L228.25 63.87 L228.52 64.87 L228.79 65.87 L229.06 66.87 L229.33 67.86 L229.61 68.86 L229.88 69.86 L230.15 70.86 L230.42 71.85 L230.70 72.85 L230.97 73.85 L231.25 74.85 L231.53 75.84 L231.80 76.84 L232.08 77.84 L232.36 78.84 L232.64 79.83 L232.92 80.83 L233.20 81.83 L233.48 82.83 L233.76 83.82 L234.04 84.82 L234.33 85.82 L234.61 86.82 L234.90 87.81 L235.18 88.81 L235.47 89.81 L235.75 90.81 L236.04 91.80 L236.33 92.80 L236.62 93.80 L236.91 94.80 L237.20 95.79 L237.49 96.79 L237.78 97.79 L238.08 98.78 L238.37 99.78 L238.67 100.78 L238.96 101.78 L239.26 102.77 L239.56 103.77 L239.85 104.77 L240.15 105.76 L240.45 106.76 L240.75 107.76 L241.06 108.76 L241.36 109.75 L241.66 110.75 L241.97 111.75 L242.27 112.74 L242.58 113.74 L242.88 114.74 L243.19 115.74 L243.50 116.73 L243.81 117.73 L244.12 118.73 L244.43 119.72 L244.75 120.72 L245.06 121.72 L245.38 122.71 L245.69 123.71 L246.01 124.71 L246.33 125.70 L246.64 126.70 L246.96 127.70 L247.28 128.69 L247.61 129.69 L247.93 130.69 L248.25 131.68 L248.58 132.68 L248.91 133.68 L249.23 134.67 L249.56 135.67 L249.89 136.67 L250.22 137.66 L250.55 138.66 L250.89 139.66 L251.22 140.65 L251.56 141.65 L251.89 142.65 L252.23 143.64 L252.57 144.64 L252.91 145.63 L253.25 146.63 L253.59 147.63 L253.94 148.62 L254.28 149.62 L254.63 150.62 L254.98 151.61 L255.33 152.61 L255.68 153.60 L256.03 154.60 L256.39 155.60 L256.74 156.59 L257.10 157.59 L257.46 158.58 L257.82 159.58 L258.18 160.58 L258.54 161.57 L258.90 162.57 L259.27 163.56 L259.64 164.56 L260.00 165.55 L260.37 166.55 L260.75 167.55 L261.12 168.54 L261.50 169.54 L261.87 170.53 L262.25 171.53 L262.63 172.52 L263.01 173.52 L263.40 174.51 L263.78 175.51 L264.17 176.50 L264.56 177.50 L264.95 178.49 L265.35 179.49 L265.74 180.48 L266.14 181.48 L266.54 182.47 L266.94 183.47 L267.34 184.46 L267.75 185.46 L268.16 186.45 L268.57 187.45 L268.98 188.44 L269.39 189.44 L269.81 190.43 L270.23 191.43 L270.65 192.42 L271.07 193.41 L271.50 194.41 L271.93 195.40 L272.36 196.40 L272.79 197.39 L273.23 198.38 L273.67 199.38 L274.11 200.37 L274.55 201.37 L275.00 202.36 L275.45 203.35 L275.90 204.35 L276.36 205.34 L276.82 206.33 L277.28 207.33 L277.75 208.32 L278.21 209.31 L278.69 210.31 L279.16 211.30 L279.64 212.29 L280.12 213.28 L280.61 214.28 L281.10 215.27 L281.59 216.26 L282.09 217.25 L282.59 218.24 L283.09 219.24 L283.60 220.23 L284.12 221.22 L284.64 222.21 L285.16 223.20 L285.68 224.19 L286.22 225.18 L286.75 226.18 L287.29 227.17 L287.84 228.16 L288.39 229.15 L288.95 230.14 L289.51 231.13 L290.08 232.12 L290.66 233.11 L291.24 234.10 L291.82 235.08 L292.42 236.07 L293.02 237.06 L293.62 238.05 L294.24 239.04 L294.86 240.03 L295.49 241.01 L296.13 242.00 L296.77 242.99 L297.43 243.97 L298.09 244.96 L298.76 245.95 L299.44 246.93 L300.14 247.92 L300.84 248.90 L301.56 249.88 L302.28 250.87 L303.02 251.85 L303.77 252.83 L304.54 253.81 L305.32 254.79 L306.12 255.77 L306.93 256.75 L307.76 257.73 L308.60 258.71 L309.47 259.68 L310.36 260.66 L311.27 261.63 L312.21 262.61 L313.17 263.58 L314.16 264.54 L315.19 265.51 L316.24 266.48 L317.34 267.44 L318.48 268.40 L319.67 269.35 L320.91 270.31 L322.22 271.25 L323.60 272.19 L325.07 273.13 L326.64 274.05 L328.34 274.96 L330.21 275.85 L332.21 276.68 L334.21 277.39 L336.21 277.96 L338.21 278.41 L340.21 278.73 L342.21 278.92 L344.21 278.98 L346.21 278.92 L348.21 278.73 L350.21 278.41 L352.21 277.96 L354.21 277.38 L356.21 276.68 L358.21 275.84 L360.21 274.88 L362.21 273.79 L364.05 272.68 L365.70 271.59 L367.21 270.51 L368.62 269.45 L369.94 268.39 L371.18 267.34 L372.37 266.29 L373.50 265.25 L374.59 264.21 L375.64 263.18 L376.65 262.14 L377.63 261.11 L378.57 260.08 L379.50 259.06 L380.39 258.03 L381.27 257.00 L382.12 255.98 L382.95 254.96 L383.77 253.94 L384.57 252.92 L385.35 251.90 L386.12 250.88 L386.87 249.86 L387.61 248.84 L388.33 247.82 L389.05 246.81 L389.75 245.79 L390.44 244.78 L391.12 243.76 L391.79 242.75 L392.45 241.73 L393.11 240.72 L393.75 239.71 L394.38 238.69 L395.01 237.68 L395.63 236.67 L396.24 235.66 L396.85 234.64 L397.44 233.63 L398.03 232.62 L398.62 231.61 L399.19 230.60 L399.77 229.59 L400.33 228.58 L400.89 227.57 L401.44 226.56 L401.99 225.55 L402.54 224.54 L403.07 223.53 L403.61 222.52 L404.14 221.51 L404.66 220.50 L405.18 219.49 L405.69 218.49 L406.20 217.48 L406.71 216.47 L407.21 215.46 L407.71 214.45 L408.20 213.45 L408.69 212.44 L409.18 211.43 L409.66 210.42 L410.14 209.42 L410.62 208.41 L411.09 207.40 L411.56 206.39 L412.03 205.39 L412.49 204.38 L412.95 203.37 L413.40 202.37 L413.86 201.36 L414.31 200.35 L414.75 199.35 L415.20 198.34 L415.64 197.33 L416.08 196.33 L416.51 195.32 L416.95 194.32 L417.38 193.31 L417.81 192.30 L418.23 191.30 L418.66 190.29 L419.08 189.29 L419.50 188.28 L419.91 187.28 L420.33 186.27 L420.74 185.27 L421.15 184.26 L421.55 183.25 L421.96 182.25 L422.36 181.24 L422.76 180.24 L423.16 179.23 L423.56 178.23 L423.95 177.22 L424.35 176.22 L424.74 175.21 L425.13 174.21 L425.51 173.20 L425.90 172.20 L426.28 171.19 L426.66 170.19 L427.04 169.19 L427.42 168.18 L427.80 167.18 L428.17 166.17 L428.55 165.17 L428.92 164.16 L429.29 163.16 L429.65 162.15 L430.02 161.15 L430.39 160.15 L430.75 159.14 L431.11 158.14 L431.47 157.13 L431.83 156.13 L432.19 155.12 L432.54 154.12 L432.90 153.12 L433.25 152.11 L433.60 151.11 L433.95 150.10 L434.30 149.10 L434.65 148.10 L435.00 147.09 L435.34 146.09 L435.68 145.09 L436.03 144.08 L436.37 143.08 L436.71 142.07 L437.04 141.07 L437.38 140.07 L437.72 139.06 L438.05 138.06 L438.39 137.06 L438.72 136.05 L439.05 135.05 L439.38 134.05 L439.71 133.04 L440.04 132.04 L440.36 131.04 L440.69 130.03 L441.01 129.03 L441.34 128.03 L441.66 127.02 L441.98 126.02 L442.30 125.02 L442.62 124.01 L442.94 123.01 L443.25 122.01 L443.57 121.00 L443.89 120.00 L444.20 119.00 L444.51 117.99 L444.82 116.99 L445.14 115.99 L445.45 114.98 L445.75 113.98 L446.06 112.98 L446.37 111.97 L446.68 110.97 L446.98 109.97 L447.29 108.97 L447.59 107.96 L447.89 106.96 L448.19 105.96 L448.50 104.95 L448.80 103.95 L449.09 102.95 L449.39 101.95 L449.69 100.94 L449.99 99.94 L450.28 98.94 L450.58 97.93 L450.87 96.93 L451.17 95.93 L451.46 94.93 L451.75 93.92 L452.04 92.92 L452.33 91.92 L452.62 90.92 L452.91 89.91 L453.20 88.91 L453.48 87.91 L453.77 86.90 L454.06 85.90 L454.34 84.90 L454.62 83.90 L454.91 82.89 L455.19 81.89 L455.47 80.89 L455.75 79.89 L456.03 78.88 L456.31 77.88 L456.59 76.88 L456.87 75.88 L457.15 74.87 L457.43 73.87 L457.70 72.87 L457.98 71.87 L458.25 70.86 L458.53 69.86 L458.80 68.86 L459.07 67.86 L459.35 66.85 L459.62 65.85 L459.89 64.85 L460.16 63.85 L460.43 62.85 L460.70 61.84 L460.97 60.84 L461.24 59.84 L461.50 58.84 L461.77 57.83 L462.04 56.83 L462.30 55.83 L462.57 54.83 L462.83 53.82 L463.09 52.82 L463.36 51.82 L463.62 50.82 L463.88 49.82 L464.14 48.81 L464.40 47.81 L464.66 46.81 L464.92 45.81 L465.18 44.80 L465.44 43.80 L465.70 42.80 L465.96 41.80 L466.21 40.80 L466.47 39.79 L466.73 38.79 L466.98 37.79 L467.24 36.79 L467.49 35.79 L467.74 34.78 L468.00 33.78 L468.25 32.78 L468.50 31.78 L468.75 30.78 L469.01 29.77 L469.26 28.77 L469.51 27.77 L469.76 26.77 L470.01 25.77 L470.25 24.76 L470.50 23.76 L470.75 22.76 L471.00 21.76 L471.24 20.76 L471.49 19.75 L471.74 18.75 L471.98 17.75 L472.23 16.75 L472.47 15.75 L472.71 14.74 L472.96 13.74 L473.20 12.74 L473.44 11.74 L473.68 10.74 L473.93 9.73 L474.17 8.73 L474.41 7.73 L474.65 6.73 L474.89 5.73 L475.13 4.73 L475.37 3.72 L475.60 2.72 L475.84 1.72 L476.08 0.72 L476.32 -0.28 " style="fill:none;stroke:#000000;stroke-width:1;" /><path d="M211.96 -0.00 L211.96 0.00 L212.21 1.00 L212.46 2.00 L212.71 3.00 L212.96 4.00 L213.21 5.00 L213.46 6.00 L213.71 7.00 L213.96 8.00 L214.21 9.00 L214.46 10.00 L214.71 11.00 L214.96 12.00 L215.21 13.00 L215.46 14.00 L215.71 15.00 L215.96 16.00 L216.21 17.00 L216.46 18.00 L216.71 19.00 L216.96 20.00 L217.21 21.00 L217.46 22.00 L217.71 23.00 L217.96 24.00 L218.21 25.00 L218.46 26.00 L218.71 27.00 L218.96 28.00 L219.21 29.00 L219.46 30.00 L219.71 31.00 L219.96 32.00 L220.21 33.00 L220.46 34.00 L220.71 35.00 L220.96 36.00 L221.21 37.00 L221.46 38.00 L221.71 39.00 L221.96 40.00 L222.21 41.00 L222.46 42.00 L222.71 43.00 L222.96 44.00 L223.21 45.00 L223.46 46.00 L223.71 47.00 L223.96 48.00 L224.21 49.00 L224.46 50.00 L224.71 51.00 L224.96 52.00 L225.21 53.00 L225.46 54.00 L225.71 55.00 L225.96 56.00 L226.21 57.00 L226.46 58.00 L226.71 59.00 L226.96 60.00 L227.21 61.00 L227.46 62.00 L227.71 63.00 L227.96 64.00 L228.21 65.00 L228.46 66.00 L228.71 67.00 L228.96 68.00 L229.21 69.00 L229.46 70.00 L229.71 71.00 L229.96 72.00 L230.21 73.00 L230.46 74.00 L230.71 75.00 L230.96 76.00 L231.21 77.00 L231.46 78.00 L231.71 79.00 L231.96 80.00 L232.21 81.00 L232.46 82.00 L232.71 83.00 L232.96 84.00 L233.21 85.00 L233.46 86.00 L233.71 87.00 L233.96 88.00 L234.21 89.00 L234.46 90.00 L234.71 91.00 L234.96 92.00 L235.21 93.00 L235.46 94.00 L235.71 95.00 L235.96 96.00 L236.21 97.00 L236.46 98.00 L236.71 99.00 L236.96 100.00 L237.21 101.00 L237.46 102.00 L237.71 103.00 L237.96 104.00 L238.21 105.00 L238.46 106.00 L238.71 107.00 L238.96 108.00 L239.21 109.00 L239.46 110.00 L239.71 111.00 L239.96 112.00 L240.21 113.00 L240.46 114.00 L240.71 115.00 L240.96 116.00 L241.21 117.00 L241.46 118.00 L241.71 119.00 L241.96 120.00 L242.21 121.00 L242.46 122.00 L242.71 123.00 L242.96 124.00 L243.21 125.00 L243.46 126.00 L243.71 127.00 L243.96 128.00 L244.21 129.00 L244.46 130.00 L244.71 131.00 L244.96 132.00 L245.21 133.00 L245.46 134.00 L245.71 135.00 L245.96 136.00 L246.21 137.00 L246.46 138.00 L246.71 139.00 L246.96 140.00 L247.21 141.00 L247.46 142.00 L247.71 143.00 L247.96 144.00 L248.21 145.00 L248.46 146.00 L248.71 147.00 L248.96 148.00 L249.21 149.00 L249.46 150.00 L249.71 151.00 L249.96 152.00 L250.21 153.00 L250.46 154.00 L250.71 155.00 L250.96 156.00 L251.21 157.00 L251.46 158.00 L251.71 159.00 L251.96 160.00 L252.21 161.00 L252.46 162.00 L252.71 163.00 L252.96 164.00 L253.21 165.00 L253.46 166.00 L253.71 167.00 L253.96 168.00 L254.21 169.00 L254.46 170.00 L254.71 171.00 L254.96 172.00 L255.21 173.00 L255.46 174.00 L255.71 175.00 L255.96 176.00 L256.21 177.00 L256.46 178.00 L256.71 179.00 L256.96 180.00 L257.21 181.00 L257.46 182.00 L257.71 183.00 L257.96 184.00 L258.21 185.00 L258.46 186.00 L258.71 187.00 L258.96 188.00 L259.21 189.00 L259.46 190.00 L259.71 191.00 L259.96 192.00 L260.21 193.00 L260.46 194.00 L260.71 195.00 L260.96 196.00 L261.21 197.00 L261.46 198.00 L261.71 199.00 L261.96 200.00 L262.21 201.00 L262.46 202.00 L262.71 203.00 L262.96 204.00 L263.21 205.00 L263.46 206.00 L263.71 207.00 L263.96 208.00 L264.21 209.00 L264.46 210.00 L264.71 211.00 L264.96 212.00 L265.21 213.00 L265.46 214.00 L265.71 215.00 L265.96 216.00 L266.21 217.00 L266.46 218.00 L266.71 219.00 L266.96 220.00 L267.21 221.00 L267.46 222.00 L267.71 223.00 L267.96 224.00 L268.21 225.00 L268.46 226.00 L268.71 227.00 L268.96 228.00 L269.21 229.00 L269.46 230.00 L269.71 231.00 L269.96 232.00 L270.21 233.00 L270.46 234.00 L270.71 235.00 L270.96 236.00 L271.21 237.00 L271.46 238.00 L271.71 239.00 L271.96 240.00 L272.21 241.00 L272.46 242.00 L272.71 243.00 L272.96 244.00 L273.21 245.00 L273.46 246.00 L273.71 247.00 L273.96 248.00 L274.21 249.00 L274.46 250.00 L274.71 251.00 L274.96 252.00 L275.21 253.00 L275.46 254.00 L275.71 255.00 L275.96 256.00 L276.21 257.00 L276.46 258.00 L276.71 259.00 L276.96 260.00 L277.21 261.00 L277.46 262.00 L277.71 263.00 L277.96 264.00 L278.21 265.00 L278.46 266.00 L278.71 267.00 L278.96 268.00 L279.21 269.00 L279.46 270.00 L279.71 271.00 L279.96 272.00 L280.21 273.00 L280.46 274.00 L280.71 275.00 L280.96 276.00 L281.21 277.00 L281.46 278.00 L281.71 279.00 L281.96 280.00 L282.21 281.00 L282.46 282.00 L282.71 283.00 L282.96 284.00 L283.21 285.00 L283.46 286.00 L283.71 287.00 L283.96 288.00 L284.21 289.00 L284.46 290.00 L284.71 291.00 L284.96 292.00 L285.21 293.00 L285.46 294.00 L285.71 295.00 L285.96 296.00 L286.21 297.00 L286.46 298.00 L286.71 299.00 L286.96 300.00 L287.21 301.00 L287.46 302.00 L287.71 303.00 L287.96 304.00 L288.21 305.00 L288.46 306.00 L288.71 307.00 L288.96 308.00 L289.21 309.00 L289.46 310.00 L289.71 311.00 L289.96 312.00 L290.21 313.00 L290.46 314.00 L290.71 315.00 L290.96 316.00 L291.21 317.00 L291.46 318.00 L291.71 319.00 L291.96 320.00 L292.21 321.00 L292.46 322.00 L292.71 323.00 L292.96 324.00 L293.21 325.00 L293.46 326.00 L293.71 327.00 L293.96 328.00 L294.21 329.00 L294.46 330.00 L294.71 331.00 L294.96 332.00 L295.21 333.00 L295.46 334.00 L295.71 335.00 L295.96 336.00 L296.21 337.00 L296.46 338.00 L296.71 339.00 L296.96 340.00 L297.21 341.00 L297.46 342.00 L297.71 343.00 L297.96 344.00 L298.21 345.00 L298.46 346.00 L298.71 347.00 L298.96 348.00 L299.21 349.00 L299.46 350.00 L299.71 351.00 L299.96 352.00 L300.21 353.00 L300.46 354.00 L300.71 355.00 L300.96 356.00 L301.21 357.00 L301.46 358.00 L301.71 359.00 L301.96 360.00 L302.21 361.00 L302.46 362.00 L302.71 363.00 L302.96 364.00 L303.21 365.00 L303.46 366.00 L303.71 367.00 L303.96 368.00 L304.21 369.00 L304.46 370.00 L304.71 371.00 L304.96 372.00 L305.21 373.00 L305.46 374.00 L305.71 375.00 L305.96 376.00 L306.21 377.00 L306.46 378.00 L306.71 379.00 L306.96 380.00 L307.21 381.00 L307.46 382.00 L307.71 383.00 L307.96 384.00 L308.21 385.00 L308.46 386.00 L308.71 387.00 L308.96 388.00 L309.21 389.00 L309.46 390.00 L309.71 391.00 L309.96 392.00 L310.21 393.00 L310.46 394.00 L310.71 395.00 L310.96 396.00 L311.21 397.00 L311.46 398.00 L311.71 399.00 L311.96 400.00 " style="fill:none;stroke:#0015FF;stroke-width:1;" /><path d="M-10.00 200.00 L-0.25 193.65 L0.75 193.90 L2.75 194.40 L4.75 194.90 L6.75 195.40 L8.75 195.90 L10.75 196.40 L12.75 196.90 L14.75 197.40 L16.75 197.90 L18.75 198.40 L20.75 198.90 L22.75 199.40 L24.75 199.90 L26.75 200.40 L28.75 200.90 L30.75 201.40 L32.75 201.90 L34.75 202.40 L36.75 202.90 L38.75 203.40 L40.75 203.90 L42.75 204.40 L44.75 204.90 L46.75 205.40 L48.75 205.90 L50.75 206.40 L52.75 206.90 L54.75 207.40 L56.75 207.90 L58.75 208.40 L60.75 208.90 L62.75 209.40 L64.75 209.90 L66.75 210.40 L68.75 210.90 L70.75 211.40 L72.75 211.90 L74.75 212.40 L76.75 212.90 L78.75 213.40 L80.75 213.90 L82.75 214.40 L84.75 214.90 L86.75 215.40 L88.75 215.90 L90.75 216.40 L92.75 216.90 L94.75 217.40 L96.75 217.90 L98.75 218.40 L100.75 218.90 L102.75 219.40 L104.75 219.90 L106.75 220.40 L108.75 220.90 L110.75 221.40 L112.75 221.90 L114.75 222.40 L116.75 222.90 L118.75 223.40 L120.75 223.90 L122.75 224.40 L124.75 224.90 L126.75 225.40 L128.75 225.90 L130.75 226.40 L132.75 226.90 L134.75 227.40 L136.75 227.90 L138.75 228.40 L140.75 228.90 L142.75 229.40 L144.75 229.90 L146.75 230.40 L148.75 230.90 L150.75 231.40 L152.75 231.90 L154.75 232.40 L156.75 232.90 L158.75 233.40 L160.75 233.90 L162.75 234.40 L164.75 234.90 L166.75 235.40 L168.75 235.90 L170.75 236.40 L172.75 236.90 L174.75 237.40 L176.75 237.90 L178.75 238.40 L180.75 238.90 L182.75 239.40 L184.75 239.90 L186.75 240.40 L188.75 240.90 L190.75 241.40 L192.75 241.90 L194.75 242.40 L196.75 242.90 L198.75 243.40 L200.75 243.90 L202.75 244.40 L204.75 244.90 L206.75 245.40 L208.75 245.90 L210.75 246.40 L212.75 246.90 L214.75 247.40 L216.75 247.90 L218.75 248.40 L220.75 248.90 L222.75 249.40 L224.75 249.90 L226.75 250.40 L228.75 250.90 L230.75 251.40 L232.75 251.90 L234.75 252.40 L236.75 252.90 L238.75 253.40 L240.75 253.90 L242.75 254.40 L244.75 254.90 L246.75 255.40 L248.75 255.90 L250.75 256.40 L252.75 256.90 L254.75 257.40 L256.75 257.90 L258.75 258.40 L260.75 258.90 L262.75 259.40 L264.75 259.90 L266.75 260.40 L268.75 260.90 L270.75 261.40 L272.75 261.90 L274.75 262.40 L276.75 262.90 L278.75 263.40 L280.75 263.90 L282.75 264.40 L284.75 264.90 L286.75 265.40 L288.75 265.90 L290.75 266.40 L292.75 266.90 L294.75 267.40 L296.75 267.90 L298.75 268.40 L300.75 268.90 L302.75 269.40 L304.75 269.90 L306.75 270.40 L308.75 270.90 L310.75 271.40 L312.75 271.90 L314.75 272.40 L316.75 272.90 L318.75 273.40 L320.75 273.90 L322.75 274.40 L324.75 274.90 L326.75 275.40 L328.75 275.90 L330.75 276.40 L332.75 276.90 L334.75 277.40 L336.75 277.90 L338.75 278.40 L340.75 278.90 L342.75 279.40 L344.75 279.90 L346.75 280.40 L348.75 280.90 L350.75 281.40 L352.75 281.90 L354.75 282.40 L356.75 282.90 L358.75 283.40 L360.75 283.90 L362.75 284.40 L364.75 284.90 L366.75 285.40 L368.75 285.90 L370.75 286.40 L372.75 286.90 L374.75 287.40 L376.75 287.90 L378.75 288.40 L380.75 288.90 L382.75 289.40 L384.75 289.90 L386.75 290.40 L388.75 290.90 L390.75 291.40 L392.75 291.90 L394.75 292.40 L396.75 292.90 L398.75 293.40 L400.75 293.90 L402.75 294.40 L404.75 294.90 L406.75 295.40 L408.75 295.90 L410.75 296.40 L412.75 296.90 L414.75 297.40 L416.75 297.90 L418.75 298.40 L420.75 298.90 L422.75 299.40 L424.75 299.90 L426.75 300.40 L428.75 300.90 L430.75 301.40 L432.75 301.90 L434.75 302.40 L436.75 302.90 L438.75 303.40 L440.75 303.90 L442.75 304.40 L444.75 304.90 L446.75 305.40 L448.75 305.90 L450.75 306.40 L452.75 306.90 L454.75 307.40 L456.75 307.90 L458.75 308.40 L460.75 308.90 L462.75 309.40 L464.75 309.90 L466.75 310.40 L468.75 310.90 L470.75 311.40 L472.75 311.90 L474.75 312.40 L476.75 312.90 L478.75 313.40 L480.75 313.90 L482.75 314.40 L484.75 314.90 L486.75 315.40 L488.75 315.90 L490.75 316.40 L492.75 316.90 L494.75 317.40 L496.75 317.90 L498.75 318.40 L500.75 318.90 L502.75 319.40 L504.75 319.90 L506.75 320.40 L508.75 320.90 L510.75 321.40 L512.75 321.90 L514.75 322.40 L516.75 322.90 L518.75 323.40 L520.75 323.90 L522.75 324.40 L524.75 324.90 L526.75 325.40 L528.75 325.90 L530.75 326.40 L532.75 326.90 L534.75 327.40 L536.75 327.90 L538.75 328.40 L540.75 328.90 L542.75 329.40 L544.75 329.90 L546.75 330.40 L548.75 330.90 L550.75 331.40 L552.75 331.90 L554.75 332.40 L556.75 332.90 L558.75 333.40 L560.75 333.90 L562.75 334.40 L564.75 334.90 L566.75 335.40 L568.75 335.90 L570.75 336.40 L572.75 336.90 L574.75 337.40 L576.75 337.90 L578.75 338.40 L580.75 338.90 L582.75 339.40 L584.75 339.90 L586.75 340.40 L588.75 340.90 L590.75 341.40 L592.75 341.90 L594.75 342.40 L596.75 342.90 L598.75 343.40 L600.75 343.90 L602.75 344.40 L604.75 344.90 L606.75 345.40 L608.75 345.90 L610.75 346.40 L612.75 346.90 L614.75 347.40 L616.75 347.90 L618.75 348.40 L620.75 348.90 L622.75 349.40 L624.75 349.90 L626.75 350.40 L628.75 350.90 L630.75 351.40 L632.75 351.90 L634.75 352.40 L636.75 352.90 L638.75 353.40 L640.75 353.90 L642.75 354.40 L644.75 354.90 L646.75 355.40 L648.75 355.90 " style="fill:none;stroke:#00FF3C;stroke-width:1;" /><path d="M314.95 400.00 L314.95 400.00 L315.45 399.00 L315.95 398.00 L316.45 397.00 L316.95 396.00 L317.45 395.00 L317.95 394.00 L318.45 393.00 L318.95 392.00 L319.45 391.00 L319.95 390.00 L320.45 389.00 L320.95 388.00 L321.45 387.00 L321.95 386.00 L322.45 385.00 L322.95 384.00 L323.45 383.00 L323.95 382.00 L324.45 381.00 L324.95 380.00 L325.45 379.00 L325.95 378.00 L326.45 377.00 L326.95 376.00 L327.45 375.00 L327.95 374.00 L328.45 373.00 L328.95 372.00 L329.45 371.00 L329.95 370.00 L330.45 369.00 L330.95 368.00 L331.45 367.00 L331.95 366.00 L332.45 365.00 L332.95 364.00 L333.45 363.00 L333.95 362.00 L334.45 361.00 L334.95 360.00 L335.45 359.00 L335.95 358.00 L336.45 357.00 L336.95 356.00 L337.45 355.00 L337.95 354.00 L338.45 353.00 L338.95 352.00 L339.45 351.00 L339.95 350.00 L340.45 349.00 L340.95 348.00 L341.45 347.00 L341.95 346.00 L342.45 345.00 L342.95 344.00 L343.45 343.00 L343.95 342.00 L344.45 341.00 L344.95 340.00 L345.45 339.00 L345.95 338.00 L346.45 337.00 L346.95 336.00 L347.45 335.00 L347.95 334.00 L348.45 333.00 L348.95 332.00 L349.45 331.00 L349.95 330.00 L350.45 329.00 L350.95 328.00 L351.45 327.00 L351.95 326.00 L352.45 325.00 L352.95 324.00 L353.45 323.00 L353.95 322.00 L354.45 321.00 L354.95 320.00 L355.45 319.00 L355.95 318.00 L356.45 317.00 L356.95 316.00 L357.45 315.00 L357.95 314.00 L358.45 313.00 L358.95 312.00 L359.45 311.00 L359.95 310.00 L360.45 309.00 L360.95 308.00 L361.45 307.00 L361.95 306.00 L362.45 305.00 L362.95 304.00 L363.45 303.00 L363.95 302.00 L364.45 301.00 L364.95 300.00 L365.45 299.00 L365.95 298.00 L366.45 297.00 L366.95 296.00 L367.45 295.00 L367.95 294.00 L368.45 293.00 L368.95 292.00 L369.45 291.00 L369.95 290.00 L370.45 289.00 L370.95 288.00 L371.45 287.00 L371.95 286.00 L372.45 285.00 L372.95 284.00 L373.45 283.00 L373.95 282.00 L374.45 281.00 L374.95 280.00 L375.45 279.00 L375.95 278.00 L376.45 277.00 L376.95 276.00 L377.45 275.00 L377.95 274.00 L378.45 273.00 L378.95 272.00 L379.45 271.00 L379.95 270.00 L380.45 269.00 L380.95 268.00 L381.45 267.00 L381.95 266.00 L382.45 265.00 L382.95 264.00 L383.45 263.00 L383.95 262.00 L384.45 261.00 L384.95 260.00 L385.45 259.00 L385.95 258.00 L386.45 257.00 L386.95 256.00 L387.45 255.00 L387.95 254.00 L388.45 253.00 L388.95 252.00 L389.45 251.00 L389.95 250.00 L390.45 249.00 L390.95 248.00 L391.45 247.00 L391.95 246.00 L392.45 245.00 L392.95 244.00 L393.45 243.00 L393.95 242.00 L394.45 241.00 L394.95 240.00 L395.45 239.00 L395.95 238.00 L396.45 237.00 L396.95 236.00 L397.45 235.00 L397.95 234.00 L398.45 233.00 L398.95 232.00 L399.45 231.00 L399.95 230.00 L400.45 229.00 L400.95 228.00 L401.45 227.00 L401.95 226.00 L402.45 225.00 L402.95 224.00 L403.45 223.00 L403.95 222.00 L404.45 221.00 L404.95 220.00 L405.45 219.00 L405.95 218.00 L406.45 217.00 L406.95 216.00 L407.45 215.00 L407.95 214.00 L408.45 213.00 L408.95 212.00 L409.45 211.00 L409.95 210.00 L410.45 209.00 L410.95 208.00 L411.45 207.00 L411.95 206.00 L412.45 205.00 L412.95 204.00 L413.45 203.00 L413.95 202.00 L414.45 201.00 L414.95 200.00 L415.45 199.00 L415.95 198.00 L416.45 197.00 L416.95 196.00 L417.45 195.00 L417.95 194.00 L418.45 193.00 L418.95 192.00 L419.45 191.00 L419.95 190.00 L420.45 189.00 L420.95 188.00 L421.45 187.00 L421.95 186.00 L422.45 185.00 L422.95 184.00 L423.45 183.00 L423.95 182.00 L424.45 181.00 L424.95 180.00 L425.45 179.00 L425.95 178.00 L426.45 177.00 L426.95 176.00 L427.45 175.00 L427.95 174.00 L428.45 173.00 L428.95 172.00 L429.45 171.00 L429.95 170.00 L430.45 169.00 L430.95 168.00 L431.45 167.00 L431.95 166.00 L432.45 165.00 L432.95 164.00 L433.45 163.00 L433.95 162.00 L434.45 161.00 L434.95 160.00 L435.45 159.00 L435.95 158.00 L436.45 157.00 L436.95 156.00 L437.45 155.00 L437.95 154.00 L438.45 153.00 L438.95 152.00 L439.45 151.00 L439.95 150.00 L440.45 149.00 L440.95 148.00 L441.45 147.00 L441.95 146.00 L442.45 145.00 L442.95 144.00 L443.45 143.00 L443.95 142.00 L444.45 141.00 L444.95 140.00 L445.45 139.00 L445.95 138.00 L446.45 137.00 L446.95 136.00 L447.45 135.00 L447.95 134.00 L448.45 133.00 L448.95 132.00 L449.45 131.00 L449.95 130.00 L450.45 129.00 L450.95 128.00 L451.45 127.00 L451.95 126.00 L452.45 125.00 L452.95 124.00 L453.45 123.00 L453.95 122.00 L454.45 121.00 L454.95 120.00 L455.45 119.00 L455.95 118.00 L456.45 117.00 L456.95 116.00 L457.45 115.00 L457.95 114.00 L458.45 113.00 L458.95 112.00 L459.45 111.00 L459.95 110.00 L460.45 109.00 L460.95 108.00 L461.45 107.00 L461.95 106.00 L462.45 105.00 L462.95 104.00 L463.45 103.00 L463.95 102.00 L464.45 101.00 L464.95 100.00 L465.45 99.00 L465.95 98.00 L466.45 97.00 L466.95 96.00 L467.45 95.00 L467.95 94.00 L468.45 93.00 L468.95 92.00 L469.45 91.00 L469.95 90.00 L470.45 89.00 L470.95 88.00 L471.45 87.00 L471.95 86.00 L472.45 85.00 L472.95 84.00 L473.45 83.00 L473.95 82.00 L474.45 81.00 L474.95 80.00 L475.45 79.00 L475.95 78.00 L476.45 77.00 L476.95 76.00 L477.45 75.00 L477.95 74.00 L478.45 73.00 L478.95 72.00 L479.45 71.00 L479.95 70.00 L480.45 69.00 L480.95 68.00 L481.45 67.00 L481.95 66.00 L482.45 65.00 L482.95 64.00 L483.45 63.00 L483.95 62.00 L484.45 61.00 L484.95 60.00 L485.45 59.00 L485.95 58.00 L486.45 57.00 L486.95 56.00 L487.45 55.00 L487.95 54.00 L488.45 53.00 L488.95 52.00 L489.45 51.00 L489.95 50.00 L490.45 49.00 L490.95 48.00 L491.45 47.00 L491.95 46.00 L492.45 45.00 L492.95 44.00 L493.45 43.00 L493.95 42.00 L494.45 41.00 L494.95 40.00 L495.45 39.00 L495.95 38.00 L496.45 37.00 L496.95 36.00 L497.45 35.00 L497.95 34.00 L498.45 33.00 L498.95 32.00 L499.45 31.00 L499.95 30.00 L500.45 29.00 L500.95 28.00 L501.45 27.00 L501.95 26.00 L502.45 25.00 L502.95 24.00 L503.45 23.00 L503.95 22.00 L504.45 21.00 L504.95 20.00 L505.45 19.00 L505.95 18.00 L506.45 17.00 L506.95 16.00 L507.45 15.00 L507.95 14.00 L508.45 13.00 L508.95 12.00 L509.45 11.00 L509.95 10.00 L510.45 9.00 L510.95 8.00 L511.45 7.00 L511.95 6.00 L512.45 5.00 L512.95 4.00 L513.45 3.00 L513.95 2.00 L514.45 1.00 L514.95 -0.00 " style="fill:none;stroke:#FF0000;stroke-width:1;" /></g></svg>